<svg xmlns="http://www.w3.org/2000/svg" viewBox="0 0 64 64"><defs><linearGradient id="g" x1="0" y1="0" x2="1" y2="1"><stop offset="0" stop-color="#FFB74D"/><stop offset=".55" stop-color="#F4511E"/><stop offset="1" stop-color="#C62828"/></linearGradient></defs><rect width="64" height="64" rx="16" fill="url(#g)"/><path d="M32 12c2.5 6-1 9.5-3.5 12.5C26 27.5 24 30 24 34a13 13 0 0 0 26 0c0-3.5-1.6-6-3.2-8.2-.7 2-1.8 3.5-3.3 4.5.8-4.8-1.3-12.3-6.5-16.3-.3 2.2-1.2 4-3 5.5 0-3-2-5.5-4-7.5z" fill="#fff" opacity=".96"/><text x="32" y="47" text-anchor="middle" font-family="Arial Black,Arial,sans-serif" font-weight="900" font-size="13" fill="#fff">FF</text></svg>